<?xml version="1.0" standalone="no"?>
<!DOCTYPE svg PUBLIC "-//W3C//DTD SVG 20010904//EN"
 "http://www.w3.org/TR/2001/REC-SVG-20010904/DTD/svg10.dtd">
<svg version="1.0" xmlns="http://www.w3.org/2000/svg"
 width="512.000000pt" height="512.000000pt" viewBox="0 0 512.000000 512.000000"
 preserveAspectRatio="xMidYMid meet">

<g transform="translate(0.000000,512.000000) scale(0.100000,-0.100000)"
fill="#2563eb" stroke="none">
<path d="M2315 5109 c-800 -83 -1501 -518 -1927 -1196 -487 -774 -516 -1777
-75 -2578 200 -364 487 -676 841 -913 238 -159 600 -311 876 -366 214 -43 295
-51 530 -51 236 0 333 10 532 51 879 183 1616 843 1897 1699 93 282 126 493
126 805 0 301 -32 513 -116 775 -124 390 -330 728 -622 1024 -399 404 -893
653 -1462 737 -123 18 -478 26 -600 13z m600 -1303 c188 -35 296 -81 386 -163
61 -57 116 -150 143 -242 28 -96 39 -257 27 -383 -17 -174 -56 -274 -134 -345
-45 -40 -142 -88 -202 -98 -66 -12 -63 -18 20 -32 213 -36 323 -148 362 -368
21 -124 13 -350 -17 -455 -54 -190 -161 -301 -350 -363 -126 -42 -248 -58
-485 -64 -334 -8 -1032 24 -1062 49 -19 16 -19 2420 0 2436 30 25 546 51 932
47 217 -2 313 -7 380 -19z"/>
<path d="M2188 3315 c-5 -5 -8 -130 -8 -278 l0 -269 248 4 c225 4 252 6 303
26 104 41 140 103 140 244 0 106 -23 164 -81 210 -58 46 -131 58 -375 65 -121
3 -223 2 -227 -2z"/>
<path d="M2185 2347 c-3 -7 -4 -131 -3 -277 l3 -265 170 -3 c201 -3 388 11
441 33 97 40 141 129 131 265 -12 169 -80 231 -274 250 -151 15 -463 13 -468
-3z"/>
</g>
</svg>
