<?xml version="1.0" standalone="no"?>
<!DOCTYPE svg PUBLIC "-//W3C//DTD SVG 20010904//EN"
        "http://www.w3.org/TR/2001/REC-SVG-20010904/DTD/svg10.dtd">
<svg version="1.0" xmlns="http://www.w3.org/2000/svg"
     width="512.000000pt" height="512.000000pt" viewBox="0 0 512.000000 512.000000"
     preserveAspectRatio="xMidYMid meet">

    <g transform="translate(0.000000,512.000000) scale(0.100000,-0.100000)"
       fill="#2563eb" stroke="none">
        <path d="M2365 4419 c-453 -47 -906 -279 -1201 -617 -507 -578 -616 -1384
-279 -2067 207 -421 560 -745 995 -915 406 -158 849 -170 1268 -35 203 66 525
247 558 314 17 34 -1 79 -34 88 -39 10 -44 8 -145 -60 -874 -588 -2070 -263
-2522 685 -265 558 -219 1200 124 1710 580 861 1776 1019 2568 339 161 -138
306 -327 408 -532 212 -421 242 -898 84 -1344 -21 -60 -39 -120 -39 -132 0
-35 36 -65 73 -61 43 4 65 40 110 179 292 897 -115 1861 -958 2269 -316 153
-666 215 -1010 179z"/>
        <path d="M2155 3678 c-94 -33 -135 -103 -135 -231 l0 -87 -77 0 c-126 0 -199
-44 -244 -144 -41 -93 -6 -211 80 -270 27 -19 62 -31 110 -39 67 -10 71 -12
71 -37 0 -32 37 -70 69 -70 12 0 33 12 47 26 24 24 26 30 22 105 -4 100 -13
109 -112 110 -87 0 -137 16 -153 49 -20 40 -15 69 16 101 29 29 31 29 144 29
162 0 161 -1 165 169 3 121 5 132 25 146 30 21 63 19 87 -5 18 -18 20 -33 20
-139 0 -105 2 -121 21 -145 l20 -26 153 0 c200 0 196 -4 196 168 0 109 2 124
20 142 11 11 33 20 48 20 51 0 60 -22 64 -163 4 -157 7 -161 124 -170 61 -4
93 -13 150 -41 85 -43 134 -94 178 -185 27 -59 31 -76 31 -156 0 -76 -4 -99
-27 -147 -15 -32 -38 -73 -52 -91 -35 -45 -33 -73 9 -132 106 -148 94 -347
-26 -480 -68 -73 -158 -118 -248 -123 -130 -7 -141 -23 -141 -198 0 -105 -1
-114 -22 -128 -32 -22 -61 -20 -86 7 -20 21 -22 34 -22 144 0 173 6 168 -195
168 -202 0 -195 6 -195 -171 0 -111 -2 -126 -20 -144 -11 -11 -31 -20 -45 -20
-14 0 -34 9 -45 20 -18 18 -20 33 -20 135 0 174 -10 185 -175 185 -120 0 -131
3 -150 41 -22 42 -18 67 14 100 28 28 34 29 116 29 78 0 88 2 110 25 l25 24 0
239 c0 214 -2 242 -17 260 -27 32 -64 37 -96 12 l-27 -21 0 -200 0 -199 -41 0
c-69 0 -121 -21 -169 -70 -88 -88 -93 -212 -13 -301 53 -59 86 -72 188 -79
l90 -5 5 -100 c4 -82 9 -107 29 -138 34 -56 88 -88 158 -94 50 -4 65 -1 113
24 44 23 60 39 82 82 25 47 28 64 28 142 l0 89 55 0 55 0 0 -87 c0 -103 18
-152 73 -200 72 -63 174 -70 250 -17 65 46 81 83 87 198 l5 99 72 17 c104 24
179 66 254 140 166 164 205 409 98 611 l-31 57 25 44 c46 79 62 145 62 253 0
71 -6 116 -19 155 -66 197 -223 330 -428 365 l-38 6 0 92 c0 85 -2 97 -29 138
-35 57 -85 88 -149 96 -61 7 -112 -9 -159 -50 -54 -47 -73 -97 -73 -194 l0
-83 -55 0 -55 0 0 83 c0 58 -6 93 -19 122 -46 99 -156 148 -256 113z"/>
        <path d="M2295 3026 c-18 -13 -20 -28 -23 -172 -2 -86 -1 -168 3 -181 12 -49
50 -55 364 -51 285 3 287 3 336 29 138 71 150 267 22 356 l-40 28 -321 3
c-269 2 -324 0 -341 -12z m629 -141 c22 -22 28 -49 17 -78 -16 -42 -61 -48
-306 -45 l-220 3 -3 68 -3 67 250 0 c209 0 252 -2 265 -15z"/>
        <path d="M2291 2424 c-19 -25 -21 -39 -21 -186 0 -155 1 -159 25 -183 l24 -25
299 0 300 0 53 28 c142 74 153 263 21 357 l-44 30 -318 3 -318 3 -21 -27z
m630 -132 c15 -13 22 -30 22 -52 0 -22 -7 -39 -22 -52 -21 -16 -45 -18 -267
-18 l-244 0 0 70 0 70 244 0 c222 0 246 -2 267 -18z"/>
        <path d="M3919 1489 c-19 -21 -29 -42 -29 -63 0 -37 7 -49 38 -65 32 -17 70
-1 100 42 27 41 28 57 1 91 -29 37 -72 35 -110 -5z"/>
    </g>
</svg>